<?xml version="1.0" encoding="UTF-8" standalone="no"?><!DOCTYPE svg PUBLIC "-//W3C//DTD SVG 1.1//EN" "http://www.w3.org/Graphics/SVG/1.1/DTD/svg11.dtd"><svg width="100%" height="100%" viewBox="0 0 128 128" version="1.1" xmlns="http://www.w3.org/2000/svg" xmlns:xlink="http://www.w3.org/1999/xlink" xml:space="preserve" style="fill-rule:evenodd;clip-rule:evenodd;stroke-linecap:round;stroke-linejoin:round;stroke-miterlimit:1.5;"><path id="inputs" d="M5.166,64.07c0,-9.601 7.795,-17.395 17.396,-17.396l55.007,-0.002" style="fill:none;stroke:#000;stroke-width:1px;"/><path id="outputs" d="M31.69,81.328l71.653,0l19.491,-17.258" style="fill:none;stroke:#000;stroke-width:1px;"/><path id="outline" d="M116.166,64.07l-14,12.396l-20,0l14,-12.396l-14,-12.396l20,0l14,12.396Zm-93.604,-12.396c6.841,0 12.395,5.555 12.395,12.396c0,6.842 -5.554,12.396 -12.395,12.396c-6.842,0 -12.396,-5.554 -12.396,-12.396c0,-6.841 5.554,-12.396 12.396,-12.396Zm55.604,24.792l-46.476,0c3.8,-2.804 6.267,-7.314 6.267,-12.396c0,-5.081 -2.467,-9.591 -6.267,-12.396l46.476,0l14,12.396l-14,12.396Z" style="fill:#ebebeb;"/><path id="flag3" d="M116.166,64.07l-20,0l-14,-12.396l20,0l14,12.396Z" style="fill:#0057ff;"/><path id="flag2" d="M116.166,64.07l-20,0l-14,12.396l20,0l14,-12.396Z" style="fill:#ff00da;"/><path id="flag1" d="M10.166,64.07c0,6.842 5.554,12.396 12.396,12.396c6.841,0 12.395,-5.554 12.395,-12.396l-24.791,0Z" style="fill:#e43030;"/><path id="flag0" d="M10.166,64.07c0,-6.841 5.554,-12.396 12.396,-12.396c6.841,0 12.395,5.555 12.395,12.396l-24.791,0Z" style="fill:#eac93f;"/><rect id="icon" x="50.166" y="55.872" width="16.396" height="16.396" style="fill:#00ff89;"/></svg>