<?xml version="1.0" encoding="UTF-8" standalone="no"?><!DOCTYPE svg PUBLIC "-//W3C//DTD SVG 1.1//EN" "http://www.w3.org/Graphics/SVG/1.1/DTD/svg11.dtd"><svg width="100%" height="100%" viewBox="0 0 128 128" version="1.1" xmlns="http://www.w3.org/2000/svg" xmlns:xlink="http://www.w3.org/1999/xlink" xml:space="preserve" style="fill-rule:evenodd;clip-rule:evenodd;stroke-linecap:round;stroke-linejoin:round;stroke-miterlimit:1.5;"><path id="outline" d="M19.199,18.986l27.376,0l0,3.189c2.627,-0.46 5.33,-0.7 8.088,-0.7c25.754,0 46.663,20.909 46.663,46.663c0,11.067 -3.861,21.239 -10.308,29.242l1.598,0l-8.711,14.932l-14.18,0c-4.726,1.614 -9.792,2.489 -15.062,2.489c-5.27,0 -10.336,-0.875 -15.062,-2.489l-20.402,0l4.879,-8.944c-9.848,-8.558 -16.078,-21.172 -16.078,-35.23c0,-14.78 6.886,-27.963 17.621,-36.516c-2.055,-8.201 -6.422,-7.658 -6.422,-7.658l0,-4.978Z" style="fill:#ebebeb;"/><path id="inputs" d="M43.424,4.752c0,0 7.406,-0.973 11.239,-0.973c35.788,0 64.843,29.056 64.843,64.844" style="fill:none;stroke:#000;stroke-width:1px;"/><path id="outputs" d="M19.199,126l100.307,0" style="fill:none;stroke:#000;stroke-width:1px;"/><path id="flag3" d="M19.199,18.986l0,4.978c0,0 7.646,-0.951 7.466,18.665c-0.18,19.615 0,55.995 0,55.995l-7.466,13.688l64.706,0l8.711,-14.932l-46.041,0l0,-78.394l-27.376,0" style="fill:#3c71b4;"/><path id="flag1" d="M46.575,37.449c2.582,-0.68 5.293,-1.042 8.088,-1.042c17.513,0 31.731,14.218 31.731,31.731c0,13.14 -8.005,24.426 -19.4,29.242l-20.419,0l0,-59.931Zm-19.971,15.868c-0.032,9.746 -0.018,20.867 0.005,29.652c-2.347,-4.428 -3.677,-9.475 -3.677,-14.831c0,-5.352 1.328,-10.396 3.672,-14.821Z" style="fill:#e42b2b;"/><path id="flag0" d="M25.621,31.622c0.665,2.651 1.088,6.215 1.044,11.007c-0.029,3.194 -0.049,6.834 -0.061,10.688c-2.344,4.425 -3.672,9.469 -3.672,14.821c0,5.356 1.33,10.403 3.677,14.831c0.024,9.074 0.056,15.655 0.056,15.655l-2.587,4.744c-9.848,-8.558 -16.078,-21.172 -16.078,-35.23c0,-14.78 6.886,-27.963 17.621,-36.516Z" style="fill:#fcf040;"/><path id="flag2" d="M46.575,22.175c2.627,-0.46 5.33,-0.7 8.088,-0.7c25.754,0 46.663,20.909 46.663,46.663c0,11.067 -3.861,21.239 -10.308,29.242l-24.024,0c11.395,-4.816 19.4,-16.102 19.4,-29.242c0,-17.513 -14.218,-31.731 -31.731,-31.731c-2.795,0 -5.506,0.362 -8.088,1.042l0,-15.274Z" style="fill:#d818be;"/><rect id="icon" x="47.819" y="51.339" width="33.597" height="33.597" style="fill:#2be44d;fill-opacity:0.536232;"/></svg>