<?xml version="1.0" encoding="UTF-8" standalone="no"?><!DOCTYPE svg PUBLIC "-//W3C//DTD SVG 1.1//EN" "http://www.w3.org/Graphics/SVG/1.1/DTD/svg11.dtd"><svg width="100%" height="100%" viewBox="0 0 534 534" version="1.1" xmlns="http://www.w3.org/2000/svg" xmlns:xlink="http://www.w3.org/1999/xlink" xml:space="preserve" style="fill-rule:evenodd;clip-rule:evenodd;stroke-linecap:round;stroke-linejoin:round;stroke-miterlimit:1.5;"><path id="outline" d="M450,175c0,-50.592 -41.074,-91.667 -91.667,-91.667l-183.333,0c-50.592,0 -91.667,41.075 -91.667,91.667l0,183.333c0,50.593 41.075,91.667 91.667,91.667l183.333,0c50.593,0 91.667,-41.074 91.667,-91.667l0,-183.333Z" style="fill:#ebebeb;"/><path id="flag0" d="M266.667,83.333l0,79.046l-104.288,104.288l-79.046,0l0,-91.667c0,-50.592 41.074,-91.666 91.667,-91.667l91.667,0Z" style="fill:#e5ec43;"/><path id="flag1" d="M266.667,450l0,-79.045l-104.288,-104.288l-79.046,0l0,91.666c0,50.592 41.074,91.666 91.667,91.667l91.667,0Z" style="fill:#cd514c;"/><path id="flag2" d="M266.667,450l0,-79.045l104.288,-104.288l79.045,0l0,91.666c0,50.592 -41.074,91.666 -91.667,91.667l-91.666,0Z" style="fill:#e1a4ed;"/><path id="flag3" d="M266.667,83.333l0,79.046l104.288,104.288l79.045,0l0,-91.667c0,-50.592 -41.074,-91.666 -91.667,-91.667l-91.666,0Z" style="fill:#4790d2;"/><path id="inputs" d="M83.333,83.333c0,0 34.922,-54.166 183.334,-54.166c148.411,0 183.333,54.166 183.333,54.166" style="fill:none;stroke:#000;stroke-width:4.17px;"/><path id="outputs" d="M83.333,450c0,0 34.922,54.167 183.334,54.167c148.411,0 183.333,-54.167 183.333,-54.167" style="fill:none;stroke:#000;stroke-width:4.17px;"/><rect id="icon" x="212.5" y="212.5" width="108.333" height="108.333" style="fill:#bfeda4;fill-opacity:0.601449;"/></svg>