<?xml version="1.0" encoding="UTF-8" standalone="no"?><!DOCTYPE svg PUBLIC "-//W3C//DTD SVG 1.1//EN" "http://www.w3.org/Graphics/SVG/1.1/DTD/svg11.dtd"><svg width="100%" height="100%" viewBox="0 0 128 128" version="1.1" xmlns="http://www.w3.org/2000/svg" xmlns:xlink="http://www.w3.org/1999/xlink" xml:space="preserve" style="fill-rule:evenodd;clip-rule:evenodd;stroke-linecap:round;stroke-linejoin:round;stroke-miterlimit:1.5;"><path id="outline" d="M52.518,104.48c5.328,0.303 6.806,0.172 11.253,2.251c4.446,2.079 8.456,5.861 12.002,5.251c3.547,-0.61 3.87,-2.315 4.502,-7.502c0.632,-5.187 3.417,-7.57 3,-9.002c-0.416,-1.432 -1.5,-2.251 -1.5,-2.251c0,0 4.569,-19.677 4.501,-30.007c-0.088,-13.473 -3.751,-28.507 -3.751,-28.507c0,0 1.619,-3.095 0,-5.252c-1.618,-2.156 -2.638,-6.209 -2.25,-9.002c0.388,-2.793 -2.558,-4.623 -4.502,-4.501c-1.943,0.122 -3.163,1.682 -9.752,4.501c-6.589,2.82 -17.097,1.424 -18.004,4.501c-0.908,3.077 0,4.501 0,4.501l-4.502,0.751c0,0 1.338,-3.025 -4.501,-2.251c-5.839,0.774 -13.136,2.438 -14.253,4.501c-1.118,2.063 -0.75,3.001 -0.75,3.001c0,0 -3.524,-0.537 -4.501,2.25c-0.696,1.983 -0.707,4.5 0.75,6.752c1.097,1.697 6.001,0.75 6.001,0.75c0,0 2.723,3.118 7.502,2.251c4.779,-0.867 9.466,-1.551 11.253,-3.751c1.787,-2.2 1.5,-3.751 1.5,-3.751c0,0 3.444,-0.574 3.751,0c1.201,2.245 2.564,5.712 3.001,8.252c0.509,2.959 0.75,6.752 0.75,6.752c0,0 -0.799,0.213 -1.5,1.5c-0.702,1.287 -0.75,2.251 -0.75,2.251l-3.001,0c0,0 -1.072,-3.361 -6.002,-3.751c-4.929,-0.39 -10.109,-0.158 -12.003,0.75c-1.894,0.908 -2.25,2.251 -2.25,2.251c0,0 -2.183,-0.405 -4.501,0.75c-2.318,1.155 -2.288,3.278 -2.251,5.251c0.038,2.04 0.596,4.352 3.001,5.251c1.474,0.552 3.751,0 3.751,0c0,0 0.331,3.928 8.252,3.751c7.921,-0.177 10.348,-1.005 11.253,-2.25c0.904,-1.246 0.75,-2.251 0.75,-2.251l3.001,0.75c0,0 0.057,2.428 1.5,3.001c1.443,0.573 1.5,0.75 1.5,0.75c0,0 -0.331,4.89 -1.5,8.252c-1.169,3.363 -3.751,6.752 -3.751,6.752l-3.001,-0.75c0,0 0.208,-2.462 -3.001,-3.751c-3.208,-1.289 -8.087,-3.089 -12.002,-3.001c-3.916,0.088 -4.502,1.5 -4.502,1.5c0,0 -3.551,-1.623 -6.001,0c-2.451,1.624 -2.333,4.193 -2.251,6.002c0.083,1.809 0.213,4.139 3.001,5.251c2.027,0.809 3.001,0 3.001,0c0,0 1.035,3.356 4.501,4.501c3.413,1.128 8.424,2.815 11.253,2.251c2.828,-0.564 3.751,-2.251 3.751,-2.251l3,0.751c0,0 -1.425,1.693 0.751,3.75c2.175,2.058 4.501,2.251 4.501,2.251" style="fill:#afa8a8;"/><path id="inputs" d="M4.502,22c0,0 24.722,-0.291 46,-7c21.277,-6.709 35.775,-15 35.775,-15" style="fill:none;stroke:#000;stroke-width:1px;"/><path id="outputs" d="M0,106c0,0 24.723,0.291 46,7c21.277,6.709 35.775,15 35.775,15" style="fill:none;stroke:#000;stroke-width:1px;"/><path id="flag2" d="M54.768,72.972c-0.001,-0.004 -0.072,-0.183 -1.5,-0.75c-1.443,-0.573 -1.5,-3.001 -1.5,-3.001l-3.001,-0.75c0,0 0.154,1.005 -0.75,2.251c-0.905,1.245 -3.332,2.073 -11.253,2.25c-7.921,0.177 -8.252,-3.751 -8.252,-3.751c0,0 -2.277,0.552 -3.751,0c-2.405,-0.899 -2.963,-3.211 -3.001,-5.251c-0.037,-1.973 -0.067,-4.096 2.251,-5.251c2.318,-1.155 4.501,-0.75 4.501,-0.75c0,0 0.356,-1.343 2.25,-2.251c1.894,-0.908 7.074,-1.14 12.003,-0.75c4.93,0.39 6.002,3.751 6.002,3.751l3.001,0c0,-0.009 0.051,-0.969 0.75,-2.251c0.701,-1.287 1.5,-1.5 1.5,-1.5l0.75,18.004Z" style="fill:#d018fa;"/><path id="flag0" d="M50.259,39.951c-0.352,-0.552 -3.743,0.013 -3.743,0.013c0,0 0.287,1.551 -1.5,3.751c-1.787,2.2 -6.474,2.884 -11.253,3.751c-4.779,0.867 -7.502,-2.251 -7.502,-2.251c0,0 -4.904,0.947 -6.001,-0.75c-1.457,-2.252 -1.446,-4.769 -0.75,-6.752c0.977,-2.787 4.501,-2.25 4.501,-2.25c0,0 -0.368,-0.938 0.75,-3.001c1.117,-2.063 8.414,-3.727 14.253,-4.501c5.839,-0.774 4.501,2.251 4.501,2.251l4.502,-0.751l0.084,0.428c0.376,1.908 1.898,9.573 2.166,10.075l-0.008,-0.013Z" style="fill:#f8f400;"/><path id="flag1" d="M44.266,97.728c0,0 -0.923,1.687 -3.751,2.251c-2.829,0.564 -7.84,-1.123 -11.253,-2.251c-3.466,-1.145 -4.501,-4.501 -4.501,-4.501c0,0 -0.974,0.809 -3.001,0c-2.788,-1.112 -2.918,-3.442 -3.001,-5.251c-0.082,-1.809 -0.2,-4.378 2.251,-6.002c2.45,-1.623 6.001,0 6.001,0c0,0 0.586,-1.412 4.502,-1.5c3.915,-0.088 8.794,1.712 12.002,3.001c3.209,1.289 3.001,3.751 3.001,3.751l3.001,0.75l-2.251,10.503l-3,-0.751Z" style="fill:#e31f1f;"/><path id="flag3" d="M52.518,104.48c5.328,0.303 6.806,0.172 11.253,2.251c4.446,2.079 8.456,5.861 12.002,5.251c3.547,-0.61 3.87,-2.315 4.502,-7.502c0.632,-5.187 3.417,-7.57 3,-9.002c-0.416,-1.432 -1.5,-2.251 -1.5,-2.251c0,0 4.569,-19.677 4.501,-30.007c-0.088,-13.473 -3.751,-28.507 -3.751,-28.507c0,0 1.619,-3.095 0,-5.252c-1.618,-2.156 -2.638,-6.209 -2.25,-9.002c0.388,-2.793 -2.558,-4.623 -4.502,-4.501c-1.943,0.122 -3.163,1.682 -9.752,4.501c-6.589,2.82 -17.097,1.424 -18.004,4.501c-0.908,3.077 0,4.501 0,4.501c0,0 1.943,9.929 2.25,10.503c1.201,2.245 2.564,5.712 3.001,8.252c0.509,2.959 0.75,6.752 0.75,6.752l0.75,18.004c0,0 -0.331,4.89 -1.5,8.252c-1.169,3.363 -3.751,6.752 -3.751,6.752l-2.251,10.503c0,0 -1.425,1.693 0.751,3.75c2.175,2.058 4.501,2.251 4.501,2.251" style="fill:#5576f2;"/><rect id="icon" x="57.235" y="49.439" width="24.064" height="24.064" style="fill:#c3b7b6;"/></svg>